<svg width="100" height="100" viewBox="0 0 100 100" fill="none" xmlns="http://www.w3.org/2000/svg">
<path d="M6.5177 63.1349C1.39336 35.8906 14.9361 9.61505 46.0191 6.11963C41.7327 1.53954 35.8771 1.50513 33.1829 2.06227C28.4259 3.57831 28.5753 6.6566 23.1793 10.6328C17.8151 13.6967 15.1209 11.3503 11.2132 14.5266C7.3139 17.6791 10.0347 24.9161 8.39937 26.3231C6.77599 29.1369 1.74028 31.6437 0.823609 35.1978C0.0660335 39.743 2.87989 42.9898 2.77166 46.8859C3.09634 50.1326 -0.46059 51.9685 0.0504491 54.5999C1.58119 58.8989 4.53162 61.4863 5.92253 62.6789C6.24149 62.9037 6.57835 63.4574 6.5177 63.1349Z" fill="#FF0090"/>
<path d="M61.8264 25.4213C60.6908 25.4213 59.7701 24.5006 59.7701 23.365C59.7701 22.2295 60.6908 21.3088 61.8264 21.3088C62.9619 21.3088 63.8826 22.2295 63.8826 23.365C63.8826 24.5006 62.9619 25.4213 61.8264 25.4213ZM7.71743 66.1066C2.79297 42.4284 18.0313 22.6436 47.5406 32.3839C64.856 42.5135 86.638 41.8539 87.6201 35.3059C90.0445 27.4562 76.5811 11.28 56.4512 7.05918C16.5162 -0.733024 -5.01313 42.4284 7.71743 66.1066Z" fill="url(#paint0_radial_1511_255)"/>
<path d="M73.226 68.7474C79.1559 69.3898 84.7847 67.9666 90.0009 63.7149C82.1204 72.505 72.2667 76.9244 60.9607 78.127C66.3589 82.7164 71.5648 84.7837 76.5451 83.8989C62.7065 87.7175 51.1125 83.5143 37.0088 69.469C36.2702 73.25 40.2636 79.1409 44.3796 82.9013C20.4978 72.5476 18.404 40.2947 47.5255 32.361C17.3377 17.8573 0.268114 46.0382 8.65463 69.1351C16.8603 86.9245 38.7267 100.619 62.6922 97.6076C74.3332 96.1817 91.7164 88.1558 98.8178 69.1351C93.8129 73.6265 84.8664 77.5382 80.8741 77.8383C94.3862 71.0855 101.68 59.6109 99.6329 43.9279C96.834 50.5913 93.1412 55.7089 88.5219 59.2236C98.3342 43.9279 96.6505 36.0221 89.3877 27.3333C94.5825 41.619 87.8626 57.4742 73.226 68.7474Z" fill="url(#paint1_radial_1511_255)"/>
<path d="M66.2918 85.2053C65.2666 85.0137 68.616 86.562 62.1404 84.8478C55.6648 83.1335 49.0713 81.4815 37.0088 69.469C36.2702 73.25 40.2636 79.1409 44.3796 82.9013C55.4907 90.6503 47.9343 87.0261 64.864 92.8787C66.2226 90.1745 66.2918 87.7716 66.2918 85.2053Z" fill="url(#paint2_linear_1511_255)"/>
<path d="M44.7661 24.3559C44.7661 24.3559 46.2381 22.1834 46.811 21.2035C47.5131 20.0028 48.5914 17.8143 48.5914 17.8143C48.5914 17.8143 37.2616 14.1179 34.4811 13.6669C25.8379 15.9105 25.8064 19.5316 30.6387 25.0743C31.1763 25.6912 44.7661 24.3559 44.7661 24.3559Z" fill="url(#paint3_linear_1511_255)"/>
<defs>
<radialGradient id="paint0_radial_1511_255" cx="0" cy="0" r="1" gradientUnits="userSpaceOnUse" gradientTransform="translate(6607.69 2276.06) scale(7535.02 5390.14)">
<stop stop-color="#F80090"/>
<stop offset="1" stop-color="#4D008E"/>
</radialGradient>
<radialGradient id="paint1_radial_1511_255" cx="0" cy="0" r="1" gradientUnits="userSpaceOnUse" gradientTransform="translate(6430.18 338.257) scale(7637.53 5777.48)">
<stop stop-color="#57008E"/>
<stop offset="0.291746" stop-color="#5C008E"/>
<stop offset="1" stop-color="#F80090"/>
</radialGradient>
<linearGradient id="paint2_linear_1511_255" x1="572.623" y1="69.469" x2="1922.67" y2="2339.93" gradientUnits="userSpaceOnUse">
<stop stop-color="#F70090"/>
<stop offset="0.669713" stop-color="#E50090"/>
<stop offset="0.827148" stop-color="#D6008F" stop-opacity="0.2"/>
<stop offset="1" stop-color="#C10090" stop-opacity="0"/>
</linearGradient>
<linearGradient id="paint3_linear_1511_255" x1="1402.8" y1="841.612" x2="1206.87" y2="466.37" gradientUnits="userSpaceOnUse">
<stop stop-color="#B2008F" stop-opacity="0.15134"/>
<stop offset="0.400351" stop-color="#F70090" stop-opacity="0.4"/>
<stop offset="0.648996" stop-color="#F60090" stop-opacity="0.891668"/>
<stop offset="1" stop-color="#FF0090"/>
</linearGradient>
</defs>
</svg>
